<svg xmlns="http://www.w3.org/2000/svg" viewBox="0 0 256 256" role="img" aria-labelledby="title desc">
  <title id="title">yt-scribe logo</title>
  <desc id="desc">An abstract red play mark, a transcript page, and a command prompt cursor.</desc>
  <defs>
    <filter id="soft-shadow" x="-20%" y="-20%" width="140%" height="140%">
      <feDropShadow dx="0" dy="10" stdDeviation="10" flood-color="#111827" flood-opacity="0.20"/>
    </filter>
  </defs>

  <g filter="url(#soft-shadow)">
    <path
      d="M54 62C54 47.6 69.6 38.6 82.1 45.7L172.8 97.7C185.3 104.9 185.3 123.1 172.8 130.3L82.1 182.3C69.6 189.4 54 180.4 54 166V62Z"
      fill="#EF2F25"/>
    <path
      d="M72 80C72 72.8 79.8 68.3 86.1 71.9L158.4 113.4C164.7 117 164.7 126 158.4 129.6L86.1 171.1C79.8 174.7 72 170.2 72 163V80Z"
      fill="#FF5B52"
      opacity="0.46"/>

    <path
      d="M128 84H184L214 114V192C214 203 205 212 194 212H128C117 212 108 203 108 192V104C108 93 117 84 128 84Z"
      fill="#FFFFFF"/>
    <path d="M184 84V108C184 111.3 186.7 114 190 114H214L184 84Z" fill="#E5E7EB"/>
    <path
      d="M128 84H184L214 114V192C214 203 205 212 194 212H128C117 212 108 203 108 192V104C108 93 117 84 128 84Z"
      fill="none"
      stroke="#111827"
      stroke-width="7"
      stroke-linejoin="round"/>
    <path d="M184 84V108C184 111.3 186.7 114 190 114H214" fill="none" stroke="#111827" stroke-width="7" stroke-linejoin="round"/>

    <path d="M132 126H160" stroke="#111827" stroke-width="8" stroke-linecap="round"/>
    <path d="M132 150H190" stroke="#111827" stroke-width="8" stroke-linecap="round"/>
    <path d="M132 174H184" stroke="#111827" stroke-width="8" stroke-linecap="round"/>

    <path d="M38 179L58 195L38 211" fill="none" stroke="#20DDEB" stroke-width="10" stroke-linecap="round" stroke-linejoin="round"/>
    <path d="M68 211H93" stroke="#20DDEB" stroke-width="10" stroke-linecap="round"/>
  </g>
</svg>
